<?xml version="1.0" encoding="UTF-8" standalone="no"?>
<!DOCTYPE svg PUBLIC "-//W3C//DTD SVG 1.1//EN"
 "http://www.w3.org/Graphics/SVG/1.1/DTD/svg11.dtd">
<!-- Generated by graphviz version 12.1.1 (20240910.0053)
 -->
<!-- Title: INFRA Pages: 1 -->
<svg width="146pt" height="80pt"
 viewBox="0.00 0.00 146.15 80.00" xmlns="http://www.w3.org/2000/svg" xmlns:xlink="http://www.w3.org/1999/xlink">
<g id="graph0" class="graph" transform="scale(1 1) rotate(0) translate(4 76)">
<title>INFRA</title>
<polygon fill="white" stroke="none" points="-4,4 -4,-76 142.15,-76 142.15,4 -4,4"/>
<!-- server -->
<g id="node1" class="node">
<title>server</title>
<path fill="#b7e0ff" stroke="black" stroke-width="2" d="M126.15,-72C126.15,-72 12,-72 12,-72 6,-72 0,-66 0,-60 0,-60 0,-12 0,-12 0,-6 6,0 12,0 12,0 126.15,0 126.15,0 132.15,0 138.15,-6 138.15,-12 138.15,-12 138.15,-60 138.15,-60 138.15,-66 132.15,-72 126.15,-72"/>
<text text-anchor="middle" x="69.08" y="-40.2" font-family="Arial" font-size="14.00">server</text>
<text text-anchor="middle" x="69.08" y="-23.4" font-family="Arial" font-size="14.00">(Docker::Container)</text>
</g>
</g>
</svg>
